Format : MPEG-4
Format profile : Base Media
Codec ID : isom
File size : 169 MiB
Duration : 25mn 23s
Overall bit rate mode : Variable
Overall bit rate : 929 Kbps

Video
ID : 1
Format : AVC
Format/Info : Advanced Video Codec
Format profile : High@L3.1
Format settings, CABAC : Yes
Format settings, ReFrames : 4 frames
Codec ID : avc1
Codec ID/Info : Advanced Video Coding
Duration : 25mn 23s
Bit rate mode : Variable
Bit rate : 868 Kbps
Width : 880 pixels
Height : 496 pixels
Display aspect ratio : 16:9
Frame rate mode : Constant
Frame rate : 25.000 fps
Color space : YUV
Chroma subsampling : 4:2:0
Bit depth : 8 bits
Scan type : Progressive
Bits/(Pixel*Frame) : 0.080
Stream size : 158 MiB (94%)

Audio
ID : 2
Format : AAC
Format/Info : Advanced Audio Codec
Format profile : LC
Codec ID : 40
Duration : 25mn 23s
Bit rate mode : Variable
Bit rate : 53.1 Kbps
Channel(s) : 2 channels
Channel positions : Front: L R
Sampling rate : 22.05 KHz
Compression mode : Lossy
Delay relative to video : -1ms
Stream size : 9.65 MiB (6%)
Language : Russian

SCREENSHOT.....
 
http://www.pixsor.com/share-DDB8_5031E4EE.html